Coordinates
version=1
nRows=11
nColumns=63
inDegrees=yes

Units are S.I. units (second, meters, Newtons, ...)
If the header above contains a line with 'inDegrees', this indicates whether rotational values are in degrees (yes) or radians (no).

endheader
time	pelvis_tilt	pelvis_list	pelvis_rotation	pelvis_tx	pelvis_ty	pelvis_tz	hip_flexion_r	hip_adduction_r	hip_rotation_r	knee_angle_r	knee_angle_r_beta	ankle_angle_r	subtalar_angle_r	mtp_angle_r	hip_flexion_l	hip_adduction_l	hip_rotation_l	knee_angle_l	knee_angle_l_beta	ankle_angle_l	subtalar_angle_l	mtp_angle_l	L5_S1_Flex_Ext	L5_S1_Lat_Bending	L5_S1_axial_rotation	L4_L5_Flex_Ext	L4_L5_Lat_Bending	L4_L5_axial_rotation	L3_L4_Flex_Ext	L3_L4_Lat_Bending	L3_L4_axial_rotation	L2_L3_Flex_Ext	L2_L3_Lat_Bending	L2_L3_axial_rotation	L1_L2_Flex_Ext	L1_L2_Lat_Bending	L1_L2_axial_rotation	L1_T12_Flex_Ext	L1_T12_Lat_Bending	L1_T12_axial_rotation	Abs_r3	Abs_r2	Abs_r1	Abs_t1	Abs_t2	neck_flexion	neck_bending	neck_rotation	arm_flex_r	arm_add_r	arm_rot_r	elbow_flex_r	pro_sup_r	wrist_flex_r	wrist_dev_r	arm_flex_l	arm_add_l	arm_rot_l	elbow_flex_l	pro_sup_l	wrist_flex_l	wrist_dev_l
2.333333	2.333122	-2.579036	91.561218	0.216852	1.022839	0.371952	1.869198	1.970602	-2.345038	7.347830	0.128244	30.068209	-2.832378	0.000000	-2.033321	-2.257659	7.724148	0.487876	0.008515	26.001650	-4.346787	0.000000	-0.054251	0.356245	-0.244039	-0.100749	0.473806	-0.259291	-0.089129	0.866174	-0.259291	-0.062003	0.866174	-0.213534	-0.050377	0.726454	-0.198282	-0.030999	0.551823	-0.183029	-0.387509	4.029912	-1.357272	0.000000	0.000000	18.876967	-9.653072	12.706105	9.890996	-11.445998	116.236609	9.809763	8.206038	-2.857064	-11.483180	10.717537	-4.887998	136.146435	3.417859	43.738203	-27.642753	3.914686
2.350000	2.375920	-2.537930	91.853662	0.216565	1.022745	0.371957	1.802658	2.036473	-2.351621	7.295381	0.127328	30.015399	-3.298644	0.000000	-2.045752	-2.324276	8.140964	0.455820	0.007956	25.985996	-4.483515	0.000000	-0.056330	0.368162	-0.334333	-0.104610	0.489656	-0.355229	-0.092544	0.895150	-0.355229	-0.064379	0.895150	-0.292541	-0.052308	0.750757	-0.271646	-0.032187	0.570284	-0.250750	-0.402357	4.164727	-1.859460	0.000000	0.000000	18.799231	-9.780446	13.201639	10.145221	-11.872310	114.225544	10.623408	9.587515	-2.759506	-11.219577	10.619500	-4.775781	137.304658	3.666910	45.317840	-28.524145	5.231224
2.366667	2.414788	-2.531573	92.066126	0.216307	1.022629	0.372219	1.809672	2.082157	-2.415022	7.285755	0.127160	29.983686	-3.550051	0.000000	-2.016989	-2.382208	8.392888	0.422911	0.007381	25.965708	-4.484829	0.000000	-0.058563	0.381706	-0.408728	-0.108758	0.507669	-0.434273	-0.096214	0.928079	-0.434273	-0.066932	0.928079	-0.357637	-0.054382	0.778374	-0.332091	-0.033463	0.591262	-0.306546	-0.418311	4.317932	-2.273222	0.000000	0.000000	18.758722	-9.839208	13.751673	10.422158	-12.277917	112.531307	11.343661	10.709409	-2.805175	-11.075898	10.572258	-4.666830	138.469603	3.905049	46.749884	-29.200704	6.303305
2.383333	2.460977	-2.551469	92.211796	0.216087	1.022513	0.372704	1.877004	2.130093	-2.412006	7.315669	0.127683	29.929603	-3.784449	0.000000	-1.955472	-2.442854	8.529431	0.392719	0.006854	25.931321	-4.419930	0.000000	-0.060990	0.397454	-0.464788	-0.113265	0.528614	-0.493837	-0.100201	0.966371	-0.493837	-0.069706	0.966371	-0.406689	-0.056636	0.810489	-0.377640	-0.034850	0.615657	-0.348591	-0.435648	4.496084	-2.585009	0.000000	0.000000	18.694868	-9.842244	14.301506	10.682032	-12.660996	110.988330	11.957027	11.684137	-2.992613	-11.045138	10.588761	-4.560566	139.826905	4.123459	47.838634	-29.580645	7.159422
2.400000	2.510787	-2.599469	92.282925	0.215938	1.022399	0.373386	2.006256	2.180915	-2.301935	7.386352	0.128916	29.848509	-4.046460	0.000000	-1.863126	-2.501284	8.635692	0.365744	0.006383	25.844663	-4.440850	0.000000	-0.062241	0.413836	-0.495722	-0.115589	0.550402	-0.526705	-0.102256	1.006202	-0.526705	-0.071136	1.006202	-0.433757	-0.057797	0.843895	-0.402774	-0.035565	0.641033	-0.371791	-0.444585	4.681401	-2.757056	0.000000	0.000000	18.563194	-9.803542	14.763735	10.878809	-13.018244	109.117589	12.476380	12.869402	-3.351308	-11.158968	10.678375	-4.482800	141.119645	4.377610	48.626760	-29.829761	7.721179
2.416667	2.561167	-2.683002	92.288170	0.215832	1.022290	0.374221	2.196767	2.223454	-2.170190	7.487874	0.130688	29.779352	-4.204283	0.000000	-1.733990	-2.554918	8.592829	0.345019	0.006022	25.743782	-4.349536	0.000000	-0.060824	0.430779	-0.506139	-0.112957	0.572936	-0.537773	-0.099928	1.047395	-0.537773	-0.069516	1.047395	-0.442872	-0.056482	0.878444	-0.411238	-0.034755	0.667276	-0.379604	-0.434463	4.873054	-2.814992	0.000000	0.000000	18.346469	-9.696615	15.214003	11.018641	-13.264938	108.029285	12.679374	13.609242	-3.832126	-11.377453	10.821088	-4.388634	142.313049	4.594320	49.315434	-29.756643	8.228651
2.433333	2.613912	-2.791736	92.236971	0.215780	1.022197	0.375187	2.435777	2.259324	-2.065894	7.620381	0.133001	29.723950	-4.226803	0.000000	-1.578128	-2.607240	8.329784	0.333261	0.005817	25.646256	-4.052627	0.000000	-0.057939	0.447952	-0.500206	-0.107598	0.595776	-0.531469	-0.095188	1.089150	-0.531469	-0.066218	1.089150	-0.437680	-0.053802	0.913463	-0.406417	-0.033106	0.693877	-0.375155	-0.413852	5.067320	-2.781996	0.000000	0.000000	18.033729	-9.512654	15.643560	11.106560	-13.399981	107.567859	12.594588	14.008244	-4.411359	-11.664813	10.998434	-4.288436	143.315930	4.773703	49.802400	-29.468007	8.636362
2.450000	2.655550	-2.923207	92.148651	0.215772	1.022105	0.376254	2.715079	2.278756	-1.946442	7.779232	0.135773	29.685888	-4.193462	0.000000	-1.400418	-2.642579	7.943864	0.325453	0.005680	25.533780	-3.683366	0.000000	-0.053978	0.464201	-0.485030	-0.100243	0.617388	-0.515345	-0.088681	1.128659	-0.515345	-0.061692	1.128659	-0.424401	-0.050124	0.946599	-0.394087	-0.030843	0.719048	-0.363773	-0.385561	5.251139	-2.697592	0.000000	0.000000	17.644246	-9.288187	16.096742	11.150604	-13.406097	107.900982	12.205716	13.955837	-5.075056	-12.087707	11.181566	-4.200082	144.052510	4.934483	50.023951	-29.242971	8.836323
2.466667	2.693587	-3.074798	92.023368	0.215802	1.022012	0.377376	3.022245	2.287646	-1.851435	7.952449	0.138796	29.664332	-4.062253	0.000000	-1.205491	-2.668990	7.459512	0.324506	0.005664	25.410959	-3.281015	0.000000	-0.047562	0.480112	-0.463489	-0.088328	0.638549	-0.492457	-0.078140	1.167345	-0.492457	-0.054359	1.167345	-0.405553	-0.044166	0.979045	-0.376585	-0.027177	0.743694	-0.347617	-0.339732	5.431127	-2.577785	0.000000	0.000000	17.171909	-9.021631	16.549605	11.162756	-13.327077	108.641609	11.646058	13.713872	-5.814587	-12.587473	11.344798	-4.101430	144.403783	5.032692	50.128290	-28.972884	8.943428
2.483333	2.724387	-3.215529	91.871147	0.215879	1.021952	0.378513	3.315651	2.284520	-1.800700	8.129039	0.141879	29.664053	-3.832491	0.000000	-1.025387	-2.685289	6.828202	0.332073	0.005796	25.300181	-2.769161	0.000000	-0.041746	0.494971	-0.435479	-0.077527	0.658312	-0.462697	-0.068585	1.203473	-0.462697	-0.047712	1.203473	-0.381044	-0.038765	1.009345	-0.353827	-0.023854	0.766710	-0.326609	-0.298189	5.599213	-2.422005	0.000000	0.000000	16.615849	-8.713760	16.967610	11.152695	-13.168522	109.790554	10.957130	13.215800	-6.565653	-13.089092	11.501294	-3.997101	144.475524	5.059905	49.954707	-28.506784	8.870351
2.500000	2.753042	-3.344672	91.740757	0.215961	1.021895	0.379627	3.580162	2.278868	-1.811251	8.287949	0.144652	29.680749	-3.564298	0.000000	-0.853820	-2.700992	6.143848	0.351469	0.006134	25.237238	-2.175764	0.000000	-0.035781	0.509342	-0.410845	-0.066450	0.677425	-0.436522	-0.058785	1.238415	-0.436522	-0.040895	1.238415	-0.359489	-0.033227	1.038651	-0.333811	-0.020445	0.788971	-0.308133	-0.255583	5.761782	-2.284994	0.000000	0.000000	16.038162	-8.355879	17.396480	11.131833	-12.975371	110.963394	10.273351	12.631092	-7.296605	-13.558432	11.645150	-3.879769	144.423681	5.042897	49.715934	-28.084602	8.863060
